<svg id="svg" version="1.1" xmlns="http://www.w3.org/2000/svg" xmlns:xlink="http://www.w3.org/1999/xlink" width="400" height="100" viewBox="0, 0, 400,100"><g id="svgg"><path id="path0" d="M265.833 0.383 C 265.833 1.176,267.737 1.533,268.630 0.907 C 269.515 0.287,269.132 0.000,267.417 0.000 C 265.876 0.000,265.833 0.010,265.833 0.383 M262.333 1.647 C 262.104 1.710,261.843 1.927,261.752 2.130 C 261.591 2.493,261.527 2.500,258.502 2.502 C 254.996 2.505,254.733 2.545,254.594 3.099 L 254.494 3.500 251.697 3.500 C 248.806 3.500,248.500 3.567,248.500 4.200 C 248.500 4.402,248.375 4.500,248.115 4.500 C 247.880 4.500,247.585 4.695,247.360 5.000 C 246.943 5.563,245.500 5.766,245.500 5.262 C 245.500 4.538,245.230 4.500,240.030 4.501 C 233.863 4.502,233.500 4.596,233.500 6.192 C 233.500 6.649,232.397 6.631,232.252 6.172 C 232.083 5.642,231.135 5.502,227.708 5.501 C 225.056 5.500,224.500 5.459,224.500 5.264 C 224.500 5.073,224.592 5.064,224.993 5.215 C 225.682 5.475,230.480 5.086,230.827 4.742 C 231.292 4.282,230.717 4.045,228.658 3.850 C 225.706 3.569,225.144 3.600,224.433 4.083 C 223.475 4.733,217.582 4.733,216.932 4.083 C 216.340 3.492,215.067 3.492,214.364 4.083 C 213.645 4.688,210.390 4.730,210.303 4.136 C 210.216 3.543,209.835 3.523,198.216 3.507 L 187.122 3.492 186.631 3.079 C 185.865 2.435,180.714 2.438,180.068 3.083 C 179.550 3.601,179.450 3.601,178.932 3.083 C 178.517 2.668,178.502 2.667,175.299 2.658 C 161.772 2.621,154.078 2.471,153.822 2.240 C 153.464 1.916,152.430 1.933,152.152 2.267 C 151.960 2.499,152.009 2.600,152.507 3.013 L 153.083 3.491 146.492 3.496 C 139.653 3.500,139.500 3.515,139.500 4.189 C 139.500 4.380,139.345 4.496,139.042 4.531 C 138.682 4.572,138.572 4.682,138.531 5.042 C 138.459 5.665,136.538 5.765,136.378 5.154 C 136.245 4.645,135.674 4.500,133.794 4.500 C 132.461 4.500,132.046 4.443,131.805 4.224 C 131.521 3.967,131.477 3.969,131.168 4.248 C 130.583 4.778,126.282 4.627,125.600 4.052 C 124.917 3.478,122.151 3.536,121.331 4.142 C 120.975 4.406,120.607 4.500,119.935 4.500 C 119.344 4.500,118.935 4.589,118.771 4.752 C 118.573 4.951,118.491 4.960,118.385 4.794 C 118.311 4.678,117.966 4.339,117.619 4.041 L 116.988 3.500 109.036 3.501 C 100.802 3.502,99.941 3.564,99.748 4.172 C 99.652 4.476,99.487 4.500,97.506 4.500 L 95.369 4.500 94.833 4.000 L 94.298 3.500 91.599 3.500 C 88.810 3.500,88.500 3.570,88.500 4.200 C 88.500 4.483,88.167 4.500,82.542 4.502 C 76.077 4.505,75.880 4.522,75.658 5.106 L 75.508 5.500 70.932 5.500 C 66.504 5.500,66.352 5.489,66.250 5.167 C 66.117 4.746,65.434 4.567,64.897 4.812 C 64.343 5.064,63.799 5.049,63.252 4.765 C 62.567 4.410,57.112 4.412,56.755 4.768 C 56.615 4.909,56.500 5.131,56.500 5.262 C 56.500 5.699,48.389 5.606,48.250 5.167 C 48.037 4.495,45.791 4.458,45.697 5.125 C 45.614 5.709,41.505 5.711,41.248 5.126 C 40.993 4.548,40.492 4.520,30.128 4.510 L 20.506 4.500 20.406 4.099 C 20.242 3.448,16.432 3.209,14.917 3.755 C 14.550 3.887,14.053 3.996,13.812 3.997 C 12.989 4.002,12.849 4.468,13.507 5.013 L 14.083 5.491 12.992 5.496 C 11.676 5.501,11.503 5.644,11.489 6.742 C 11.479 7.465,11.452 7.531,11.298 7.212 C 10.975 6.543,9.956 6.519,9.747 7.175 C 9.662 7.443,9.490 7.500,8.772 7.500 C 7.859 7.500,7.500 7.697,7.500 8.200 C 7.500 8.378,7.378 8.500,7.200 8.500 C 6.804 8.500,6.501 8.818,6.495 9.242 C 6.490 9.581,6.489 9.581,6.301 9.250 C 5.993 8.708,5.840 8.672,3.801 8.669 C 1.972 8.667,1.823 8.692,1.384 9.073 L 0.917 9.480 1.296 9.865 C 1.636 10.211,1.875 10.260,3.629 10.344 L 5.583 10.438 3.167 10.471 C -0.340 10.520,0.000 10.210,0.000 13.353 C 0.000 15.595,0.038 16.000,0.250 16.000 C 0.439 16.000,0.500 16.204,0.500 16.833 C 0.500 17.463,0.439 17.667,0.250 17.667 C 0.040 17.667,0.000 18.037,0.000 20.000 C 0.000 21.963,0.040 22.333,0.250 22.333 C 0.443 22.333,0.500 22.551,0.501 23.292 C 0.502 24.751,0.744 25.370,1.665 26.273 C 2.242 26.839,2.493 27.218,2.496 27.530 C 2.500 28.015,2.883 28.500,3.262 28.500 C 3.393 28.500,3.500 28.639,3.500 28.808 C 3.500 29.373,3.857 30.152,4.161 30.248 C 4.326 30.300,4.504 30.564,4.558 30.834 C 4.626 31.173,4.783 31.356,5.064 31.427 C 5.307 31.488,5.511 31.690,5.571 31.929 C 5.631 32.165,5.835 32.369,6.071 32.429 C 6.308 32.488,6.512 32.692,6.571 32.929 C 6.632 33.170,6.836 33.369,7.086 33.432 C 7.447 33.523,7.500 33.628,7.500 34.256 C 7.500 35.010,7.804 35.487,8.304 35.517 C 8.463 35.526,8.405 35.583,8.167 35.648 C 7.819 35.745,7.725 35.908,7.602 36.632 L 7.453 37.500 6.738 37.500 C 6.021 37.500,5.500 37.811,5.500 38.240 C 5.500 38.386,5.130 38.493,4.375 38.568 C 2.540 38.749,2.500 38.828,2.500 42.257 C 2.500 44.778,2.486 44.885,2.096 45.349 C 1.250 46.355,1.308 50.978,2.170 51.251 C 2.339 51.305,2.524 51.563,2.582 51.825 C 2.649 52.132,2.820 52.336,3.062 52.396 C 3.364 52.472,3.468 52.664,3.594 53.370 C 3.719 54.077,3.819 54.260,4.101 54.300 C 4.426 54.347,4.460 54.481,4.540 56.063 C 4.669 58.576,5.281 59.500,6.816 59.500 C 7.456 59.500,7.616 59.564,7.752 59.875 C 7.872 60.147,8.133 60.292,8.708 60.403 L 9.500 60.556 9.500 61.439 C 9.500 62.734,10.273 63.500,11.578 63.500 C 12.436 63.500,12.480 63.521,12.531 63.958 C 12.572 64.318,12.682 64.428,13.042 64.469 C 13.372 64.507,13.500 64.616,13.500 64.857 C 13.500 65.538,14.803 66.499,15.743 66.511 C 16.444 66.521,16.524 66.551,16.227 66.695 C 16.032 66.790,15.789 67.047,15.689 67.267 C 15.462 67.766,15.224 67.773,14.829 67.292 C 14.532 66.929,14.511 66.927,14.219 67.219 C 13.927 67.511,13.930 67.532,14.302 67.838 C 14.796 68.243,14.691 70.500,14.178 70.500 C 13.696 70.500,13.500 70.871,13.500 71.783 C 13.500 72.799,12.751 73.120,12.314 72.292 C 12.044 71.779,11.847 71.672,11.162 71.669 C 9.896 71.664,9.502 72.439,9.501 74.937 L 9.500 76.457 8.645 76.570 C 8.037 76.651,7.605 76.838,7.148 77.217 L 6.506 77.750 6.520 82.583 C 6.536 88.411,6.496 88.203,7.631 88.405 L 8.500 88.561 8.510 89.322 C 8.528 90.688,8.769 91.712,9.145 92.016 C 9.340 92.174,9.500 92.489,9.500 92.715 C 9.500 93.212,10.720 94.500,11.190 94.500 C 11.372 94.500,11.573 94.670,11.659 94.896 C 11.741 95.113,12.002 95.340,12.238 95.399 C 12.547 95.476,12.667 95.616,12.667 95.900 C 12.667 96.149,12.913 96.517,13.334 96.897 L 14.001 97.500 23.924 97.500 L 33.847 97.500 34.354 97.875 C 35.059 98.396,42.773 98.463,43.549 97.954 C 44.666 97.223,43.735 96.789,40.767 96.659 L 38.417 96.556 41.658 96.528 L 44.898 96.500 45.363 96.946 C 46.067 97.619,47.923 97.627,48.622 96.958 C 49.202 96.404,49.624 96.368,49.697 96.868 C 49.837 97.835,54.167 97.642,54.167 96.669 C 54.167 96.557,57.430 96.500,63.905 96.500 L 73.643 96.500 73.697 96.875 C 73.731 97.116,73.884 97.269,74.125 97.303 C 74.415 97.344,74.500 97.466,74.500 97.839 C 74.500 98.172,74.688 98.510,75.104 98.926 L 75.708 99.530 77.346 99.473 C 79.420 99.402,79.402 99.420,79.473 97.249 L 79.530 95.514 86.390 95.465 C 102.916 95.348,121.500 95.503,121.500 95.758 C 121.500 95.967,120.188 96.000,111.937 96.000 C 101.767 96.000,101.558 96.016,102.167 96.750 C 102.480 97.128,121.520 97.128,121.833 96.750 C 122.188 96.322,124.716 96.404,125.338 96.863 C 125.926 97.298,131.597 97.577,137.333 97.454 C 140.763 97.380,141.093 97.326,141.255 96.818 C 141.354 96.507,141.901 96.500,165.720 96.488 C 191.710 96.475,192.529 96.457,193.005 95.869 C 193.407 95.372,194.676 95.352,195.288 95.833 C 195.521 96.017,195.865 96.167,196.052 96.167 C 196.240 96.167,196.632 96.428,196.925 96.747 L 197.457 97.328 204.020 97.338 C 228.705 97.376,241.903 97.574,242.409 97.917 C 243.169 98.432,244.457 98.467,262.882 98.484 L 279.847 98.500 280.324 98.853 C 281.536 99.749,295.763 99.761,296.714 98.867 L 297.105 98.500 320.677 98.493 C 344.659 98.485,345.523 98.463,346.021 97.849 C 346.416 97.361,367.659 97.291,368.195 97.776 C 368.479 98.032,368.521 98.032,368.805 97.776 C 369.315 97.314,373.759 97.372,374.265 97.847 C 374.838 98.386,375.656 98.492,379.280 98.496 C 382.467 98.500,382.650 98.517,382.747 98.825 C 382.804 99.003,382.997 99.196,383.175 99.253 C 383.639 99.400,384.132 99.204,384.253 98.825 C 384.423 98.289,385.667 99.124,385.667 99.775 C 385.667 99.945,385.988 100.000,386.981 100.000 C 388.399 100.000,388.491 99.931,388.498 98.875 C 388.500 98.539,388.582 98.500,389.300 98.500 C 390.146 98.500,390.500 98.293,390.500 97.800 C 390.500 97.553,390.641 97.500,391.300 97.500 C 392.300 97.500,392.500 97.302,392.500 96.311 C 392.500 95.574,392.530 95.519,392.958 95.469 C 393.318 95.428,393.428 95.318,393.469 94.958 C 393.522 94.505,393.534 94.500,394.749 94.500 C 396.003 94.500,396.500 94.284,396.500 93.738 C 396.500 93.607,396.650 93.500,396.833 93.500 C 397.268 93.500,398.500 92.265,398.500 91.829 C 398.500 91.628,398.659 91.431,398.894 91.342 C 399.439 91.135,399.495 90.797,399.498 87.708 C 399.500 85.413,399.538 85.000,399.750 85.000 C 399.954 85.000,400.000 84.722,400.000 83.500 C 400.000 82.278,399.954 82.000,399.750 82.000 C 399.533 82.000,399.500 81.254,399.498 76.292 C 399.495 70.087,399.476 69.879,398.894 69.658 C 398.510 69.512,398.500 69.457,398.500 67.515 C 398.500 65.407,398.346 64.667,397.906 64.667 C 397.759 64.667,397.554 64.446,397.453 64.176 C 397.345 63.892,397.106 63.646,396.884 63.590 C 396.663 63.535,396.500 63.368,396.500 63.197 C 396.500 62.708,396.145 62.500,395.311 62.500 C 394.574 62.500,394.519 62.470,394.469 62.042 C 394.422 61.631,394.342 61.578,393.706 61.532 C 393.072 61.486,393.023 61.454,393.248 61.228 C 393.404 61.072,393.500 60.667,393.500 60.166 C 393.500 59.458,393.546 59.350,393.868 59.303 C 394.309 59.239,394.460 58.785,394.483 57.454 C 394.498 56.603,394.546 56.474,394.894 56.342 C 395.438 56.135,395.495 55.796,395.498 52.729 C 395.499 50.670,395.553 49.997,395.726 49.853 C 396.327 49.354,396.434 45.110,395.865 44.340 C 395.598 43.980,395.500 43.610,395.499 42.965 C 395.498 41.760,395.230 40.876,394.828 40.748 C 394.318 40.586,394.258 35.401,394.763 35.117 C 395.179 34.883,395.500 34.042,395.500 33.187 C 395.500 32.453,395.544 32.350,395.874 32.303 C 396.362 32.234,396.455 31.767,396.480 29.269 L 396.500 27.287 397.573 27.397 C 398.163 27.458,398.951 27.458,399.323 27.399 L 400.000 27.291 400.000 23.645 C 400.000 20.516,399.965 20.000,399.750 20.000 C 399.583 20.000,399.500 19.833,399.500 19.500 C 399.500 19.167,399.583 19.000,399.750 19.000 C 400.465 19.000,400.018 18.023,399.250 17.908 C 398.520 17.798,398.500 17.779,398.498 17.189 C 398.494 16.254,398.324 15.821,397.894 15.658 C 397.375 15.461,397.298 13.333,397.790 12.789 C 398.124 12.420,397.476 11.667,396.824 11.667 C 396.158 11.667,396.949 10.603,397.768 10.397 C 399.193 10.040,398.275 6.500,396.757 6.500 C 396.502 6.500,396.317 6.378,396.250 6.167 C 396.118 5.750,395.436 5.567,394.909 5.806 C 393.986 6.227,393.011 5.207,393.003 3.812 C 392.999 3.176,392.582 2.874,392.192 3.227 C 391.804 3.578,390.500 3.605,390.500 3.262 C 390.500 2.807,389.992 2.500,389.238 2.500 C 388.627 2.500,388.500 2.446,388.500 2.187 C 388.500 1.489,388.609 1.494,374.314 1.556 C 366.762 1.588,360.508 1.620,360.417 1.626 C 360.325 1.633,359.529 1.602,358.649 1.558 C 356.770 1.464,355.982 1.621,355.752 2.133 C 355.512 2.668,354.381 2.667,354.303 2.132 C 354.221 1.560,353.894 1.534,346.469 1.517 C 339.358 1.500,338.781 1.547,338.622 2.154 C 338.504 2.603,337.272 2.647,336.800 2.219 C 336.322 1.787,335.787 2.322,336.219 2.800 C 336.864 3.512,337.060 3.500,324.327 3.500 C 312.377 3.500,312.145 3.494,311.698 3.164 C 311.132 2.745,308.346 2.464,306.096 2.598 C 304.107 2.716,303.875 2.773,303.750 3.167 C 303.580 3.702,296.451 3.682,296.016 3.145 C 295.563 2.585,294.616 2.521,286.748 2.510 L 279.412 2.500 279.248 2.126 C 279.134 1.867,278.880 1.717,278.417 1.636 C 277.561 1.486,262.886 1.496,262.333 1.647 M146.167 2.250 C 145.770 2.728,146.254 3.000,147.500 3.000 C 148.297 3.000,148.686 2.927,148.833 2.750 C 149.230 2.272,148.746 2.000,147.500 2.000 C 146.703 2.000,146.314 2.073,146.167 2.250 M176.217 4.457 C 175.465 4.488,174.190 4.488,173.383 4.458 C 172.577 4.427,173.192 4.402,174.750 4.402 C 176.308 4.401,176.968 4.426,176.217 4.457 M184.542 4.457 C 183.969 4.489,183.031 4.489,182.458 4.457 C 181.885 4.424,182.354 4.398,183.500 4.398 C 184.646 4.398,185.115 4.424,184.542 4.457 M398.694 27.659 C 397.192 27.903,397.205 29.717,398.721 31.292 C 399.889 32.505,400.000 32.372,400.000 29.750 C 400.000 27.236,400.119 27.428,398.694 27.659 M398.160 49.258 C 397.808 49.683,398.387 50.185,398.777 49.794 C 399.050 49.522,398.868 49.000,398.500 49.000 C 398.431 49.000,398.278 49.116,398.160 49.258 M199.875 95.623 C 199.394 95.657,198.606 95.657,198.125 95.623 C 197.644 95.589,198.037 95.562,199.000 95.562 C 199.963 95.562,200.356 95.589,199.875 95.623 M96.167 96.250 C 95.770 96.728,96.254 97.000,97.500 97.000 C 98.297 97.000,98.686 96.927,98.833 96.750 C 99.230 96.272,98.746 96.000,97.500 96.000 C 96.703 96.000,96.314 96.073,96.167 96.250 M148.167 97.250 C 147.630 97.897,148.156 98.000,152.000 98.000 C 155.844 98.000,156.370 97.897,155.833 97.250 C 155.661 97.042,155.020 97.000,152.000 97.000 C 148.980 97.000,148.339 97.042,148.167 97.250 M51.167 98.250 C 50.847 98.636,51.251 99.000,52.000 99.000 C 52.353 99.000,52.716 98.891,52.833 98.750 C 53.153 98.364,52.749 98.000,52.000 98.000 C 51.647 98.000,51.284 98.109,51.167 98.250 M302.083 98.825 C 301.808 98.900,300.867 98.969,299.992 98.980 C 298.356 99.001,298.000 99.129,298.000 99.700 C 298.000 99.986,298.519 100.000,309.000 100.000 C 319.650 100.000,320.000 99.990,320.000 99.687 C 320.000 99.050,319.670 98.998,315.147 98.919 C 312.729 98.877,308.912 98.808,306.667 98.766 C 304.421 98.724,302.358 98.750,302.083 98.825 " stroke="none" ></path><path id="path1" d="" stroke="none" fill="#108cfc" fill-rule="evenodd"></path><path id="path2" d="" stroke="none" fill="#108cfc" ></path><path id="path3" d="" stroke="none" ></path><path id="path4" d="" stroke="none" ></path></g></svg>